<?xml version="1.0" encoding="UTF-8"?>
<svg id="Layer_1" data-name="Layer 1" xmlns="http://www.w3.org/2000/svg" viewBox="0 0 278.15 158.63">
  <defs>
    <style>
      .cls-1 {
        fill: #231f20;
        stroke-width: 0px;
      }
    </style>
  </defs>
  <path class="cls-1" d="m49.7,68.92H12.61c-6.41,0-11.61,5.2-11.61,11.61s5.2,11.61,11.61,11.61h110.42c6.41,0,11.61-5.2,11.61-11.61s-5.2-11.61-11.61-11.61h-38.42c-2.26,0-4.09-1.83-4.09-4.09s1.83-4.09,4.09-4.09h35.83c6.46,0,11.69-5.24,11.69-11.69s-5.24-11.69-11.69-11.69H35.25c-2.34,0-3.9-.39-4.68-1.17-.78-.78-1.17-2.34-1.17-4.68,0-3.23,2.62-5.85,5.85-5.85h85.2c6.46,0,11.69-5.24,11.69-11.69s-5.24-11.69-11.69-11.69H14.62C8.02,2.26,2.67,7.61,2.67,14.21v36.5c0,3.45.81,5.99,2.42,7.6,1.61,1.62,4.15,2.42,7.6,2.42h37c2.26,0,4.09,1.83,4.09,4.09s-1.83,4.09-4.09,4.09Z"/>
  <path class="cls-1" d="m126.63,102.93c-5.57-5.01-12.92-7.52-22.05-7.52H30.4c-9.13,0-16.48,2.51-22.05,7.52-5.57,5.01-8.35,12.2-8.35,21.55s2.78,16.54,8.35,21.55c5.57,5.01,12.92,7.52,22.05,7.52h74.17c9.13,0,16.48-2.51,22.05-7.52,5.57-5.01,8.35-12.19,8.35-21.55s-2.79-16.54-8.35-21.55Zm-26.73,27.23H35.08c-5.01,0-7.52-1.9-7.52-5.68s2.51-5.68,7.52-5.68h64.82c5.01,0,7.52,1.9,7.52,5.68s-2.51,5.68-7.52,5.68Z"/>
  <polygon class="cls-1" points="237.61 158.63 237.72 158.63 237.61 158.29 237.61 158.63"/>
  <rect class="cls-1" x="251.42" y="2.26" width="26.73" height="156.36" rx="13.36" ry="13.36"/>
  <path class="cls-1" d="m244.47,14.12c0-7.8-23.62-14.12-52.75-14.12s-52.75,6.32-52.75,14.12c0,5.66,12.45,10.54,30.41,12.79,5.59.7,9.56,5.87,8.83,11.46-4.23,32.31-14.3,78.55-31.27,93.34-2.67,2.33-4.94,7.02-4.94,10.56v.35c0,9.39,10.81,14.89,18.24,9.14,13.1-10.15,23.64-28.55,31.47-54.99,7.72,26.05,18.06,44.29,30.89,54.53,6.55,5.23,16.3,2.28,18.82-5.72h0c1.49-4.75-.02-9.97-3.92-13.03-17.76-13.95-28.2-61.38-32.43-94.14-.72-5.59,3.24-10.78,8.84-11.47,18.04-2.24,30.55-7.13,30.55-12.81Z"/>
  <g>
    <circle class="cls-1" cx="156.38" cy="44.31" r="2.64"/>
    <circle class="cls-1" cx="145.83" cy="87.82" r="2.64"/>
    <circle class="cls-1" cx="162.71" cy="63.82" r="2.64"/>
  </g>
  <g>
    <circle class="cls-1" cx="227.06" cy="42.2" r="2.64"/>
    <circle class="cls-1" cx="220.73" cy="63.97" r="2.64"/>
    <circle class="cls-1" cx="237.08" cy="81.76" r="2.64"/>
  </g>
</svg>