<svg width="131" height="131" viewBox="0 0 131 131" fill="none" xmlns="http://www.w3.org/2000/svg">
<path d="M109.167 98.25C110.558 98.2515 111.896 98.7843 112.908 99.7393C113.919 100.694 114.528 102 114.61 103.388C114.691 104.777 114.239 106.145 113.346 107.212C112.453 108.279 111.187 108.964 109.805 109.128L109.167 109.167H21.8333C20.4421 109.165 19.104 108.632 18.0924 107.677C17.0807 106.722 16.472 105.417 16.3904 104.028C16.3089 102.639 16.7608 101.272 17.6537 100.205C18.5466 99.1381 19.8132 98.4525 21.1947 98.2882L21.8333 98.25H109.167ZM109.167 60.0417C110.614 60.0417 112.003 60.6167 113.026 61.6404C114.05 62.664 114.625 64.0524 114.625 65.5C114.625 66.9476 114.05 68.336 113.026 69.3596C112.003 70.3833 110.614 70.9583 109.167 70.9583H21.8333C20.3857 70.9583 18.9973 70.3833 17.9737 69.3596C16.9501 68.336 16.375 66.9476 16.375 65.5C16.375 64.0524 16.9501 62.664 17.9737 61.6404C18.9973 60.6167 20.3857 60.0417 21.8333 60.0417H109.167ZM109.167 21.8333C110.614 21.8333 112.003 22.4084 113.026 23.432C114.05 24.4557 114.625 25.844 114.625 27.2917C114.625 28.7393 114.05 30.1276 113.026 31.1513C112.003 32.1749 110.614 32.75 109.167 32.75H21.8333C20.3857 32.75 18.9973 32.1749 17.9737 31.1513C16.9501 30.1276 16.375 28.7393 16.375 27.2917C16.375 25.844 16.9501 24.4557 17.9737 23.432C18.9973 22.4084 20.3857 21.8333 21.8333 21.8333H109.167Z" fill="white"/>
</svg>
